<mxfile host="app.diagrams.net" agent="Mozilla/5.0 (Macintosh; Intel Mac OS X 10_15_7) AppleWebKit/537.36 (KHTML, like Gecko) Chrome/130.0.0.0 Safari/537.36" version="24.8.3">
  <diagram name="Page-1" id="uqK03IG_AHZ2PeOaqOmM">
    <mxGraphModel dx="1194" dy="605" grid="1" gridSize="10" guides="1" tooltips="1" connect="1" arrows="1" fold="1" page="1" pageScale="1" pageWidth="827" pageHeight="1169" math="0" shadow="0">
      <root>
        <mxCell id="0" />
        <mxCell id="1" parent="0" />
        <mxCell id="txdml7WTBSUscQEqyN7m-1" value="" style="rounded=0;whiteSpace=wrap;html=1;" parent="1" vertex="1">
          <mxGeometry x="130" y="80" width="200" height="150" as="geometry" />
        </mxCell>
        <mxCell id="txdml7WTBSUscQEqyN7m-2" value="&amp;lt;a&amp;gt; &amp;lt;Button&amp;gt;...&lt;div&gt;&amp;lt;custom element&amp;gt;&lt;/div&gt;" style="rounded=0;whiteSpace=wrap;html=1;" parent="1" vertex="1">
          <mxGeometry x="150" y="90" width="160" height="60" as="geometry" />
        </mxCell>
        <mxCell id="txdml7WTBSUscQEqyN7m-3" value="Sub-Menu" style="rounded=0;whiteSpace=wrap;html=1;" parent="1" vertex="1">
          <mxGeometry x="150" y="160" width="160" height="60" as="geometry" />
        </mxCell>
        <mxCell id="txdml7WTBSUscQEqyN7m-6" value="" style="edgeStyle=orthogonalEdgeStyle;rounded=0;orthogonalLoop=1;jettySize=auto;html=1;" parent="1" source="txdml7WTBSUscQEqyN7m-4" target="txdml7WTBSUscQEqyN7m-5" edge="1">
          <mxGeometry relative="1" as="geometry" />
        </mxCell>
        <mxCell id="txdml7WTBSUscQEqyN7m-4" value="Sub-Menu" style="rounded=0;whiteSpace=wrap;html=1;" parent="1" vertex="1">
          <mxGeometry x="500" y="90" width="160" height="60" as="geometry" />
        </mxCell>
        <mxCell id="txdml7WTBSUscQEqyN7m-5" value="is hidden&lt;div&gt;or clientHeight = 0 / clientWidth = 0&lt;br&gt;isElementInSubMenu() should return true.&lt;/div&gt;" style="whiteSpace=wrap;html=1;rounded=0;" parent="1" vertex="1">
          <mxGeometry x="780" y="60" width="220" height="120" as="geometry" />
        </mxCell>
        <mxCell id="txdml7WTBSUscQEqyN7m-8" value="Pattern - 1" style="text;html=1;align=center;verticalAlign=middle;whiteSpace=wrap;rounded=0;" parent="1" vertex="1">
          <mxGeometry x="510" y="20" width="60" height="30" as="geometry" />
        </mxCell>
        <mxCell id="txdml7WTBSUscQEqyN7m-9" value="Pattern - 2" style="text;html=1;align=center;verticalAlign=middle;whiteSpace=wrap;rounded=0;" parent="1" vertex="1">
          <mxGeometry x="505" y="320" width="70" height="30" as="geometry" />
        </mxCell>
        <mxCell id="txdml7WTBSUscQEqyN7m-10" value="" style="rounded=0;whiteSpace=wrap;html=1;" parent="1" vertex="1">
          <mxGeometry x="151" y="360" width="270" height="230" as="geometry" />
        </mxCell>
        <mxCell id="txdml7WTBSUscQEqyN7m-11" value="" style="rounded=0;whiteSpace=wrap;html=1;" parent="1" vertex="1">
          <mxGeometry x="163" y="370" width="247" height="35" as="geometry" />
        </mxCell>
        <mxCell id="txdml7WTBSUscQEqyN7m-12" value="" style="rounded=0;whiteSpace=wrap;html=1;" parent="1" vertex="1">
          <mxGeometry x="163" y="420" width="246" height="35" as="geometry" />
        </mxCell>
        <mxCell id="txdml7WTBSUscQEqyN7m-13" value="" style="rounded=0;whiteSpace=wrap;html=1;" parent="1" vertex="1">
          <mxGeometry x="163" y="470" width="246" height="35" as="geometry" />
        </mxCell>
        <mxCell id="txdml7WTBSUscQEqyN7m-14" value="" style="rounded=0;whiteSpace=wrap;html=1;" parent="1" vertex="1">
          <mxGeometry x="163" y="540" width="246" height="35" as="geometry" />
        </mxCell>
        <mxCell id="txdml7WTBSUscQEqyN7m-15" value="UL" style="text;html=1;align=center;verticalAlign=middle;whiteSpace=wrap;rounded=0;" parent="1" vertex="1">
          <mxGeometry x="421" y="400" width="60" height="30" as="geometry" />
        </mxCell>
        <mxCell id="txdml7WTBSUscQEqyN7m-16" value="LI&lt;span style=&quot;color: rgba(0, 0, 0, 0); font-family: monospace; font-size: 0px; text-align: start; text-wrap-mode: nowrap;&quot;&gt;%3CmxGraphModel%3E%3Croot%3E%3CmxCell%20id%3D%220%22%2F%3E%3CmxCell%20id%3D%221%22%20parent%3D%220%22%2F%3E%3CmxCell%20id%3D%222%22%20value%3D%22%22%20style%3D%22rounded%3D0%3BwhiteSpace%3Dwrap%3Bhtml%3D1%3B%22%20vertex%3D%221%22%20parent%3D%221%22%3E%3CmxGeometry%20x%3D%22414%22%20y%3D%22430%22%20width%3D%22246%22%20height%3D%2235%22%20as%3D%22geometry%22%2F%3E%3C%2FmxCell%3E%3C%2Froot%3E%3C%2FmxGraphModel%3E&lt;/span&gt;" style="text;html=1;align=center;verticalAlign=middle;whiteSpace=wrap;rounded=0;" parent="1" vertex="1">
          <mxGeometry x="256" y="375" width="60" height="30" as="geometry" />
        </mxCell>
        <mxCell id="txdml7WTBSUscQEqyN7m-17" value="LI&lt;span style=&quot;color: rgba(0, 0, 0, 0); font-family: monospace; font-size: 0px; text-align: start; text-wrap-mode: nowrap;&quot;&gt;%3CmxGraphModel%3E%3Croot%3E%3CmxCell%20id%3D%220%22%2F%3E%3CmxCell%20id%3D%221%22%20parent%3D%220%22%2F%3E%3CmxCell%20id%3D%222%22%20value%3D%22%22%20style%3D%22rounded%3D0%3BwhiteSpace%3Dwrap%3Bhtml%3D1%3B%22%20vertex%3D%221%22%20parent%3D%221%22%3E%3CmxGeometry%20x%3D%22414%22%20y%3D%22430%22%20width%3D%22246%22%20height%3D%2235%22%20as%3D%22geometry%22%2F%3E%3C%2FmxCell%3E%3C%2Froot%3E%3C%2FmxGraphModel%3E&lt;/span&gt;" style="text;html=1;align=center;verticalAlign=middle;whiteSpace=wrap;rounded=0;" parent="1" vertex="1">
          <mxGeometry x="256" y="420" width="60" height="30" as="geometry" />
        </mxCell>
        <mxCell id="txdml7WTBSUscQEqyN7m-18" value="" style="rounded=0;whiteSpace=wrap;html=1;" parent="1" vertex="1">
          <mxGeometry x="609" y="360" width="281" height="220" as="geometry" />
        </mxCell>
        <mxCell id="txdml7WTBSUscQEqyN7m-19" value="&amp;lt;a&amp;gt; &amp;lt;button&amp;gt; ... &amp;lt;custom element&amp;gt;" style="rounded=0;whiteSpace=wrap;html=1;" parent="1" vertex="1">
          <mxGeometry x="626.5" y="375" width="185" height="32.5" as="geometry" />
        </mxCell>
        <mxCell id="txdml7WTBSUscQEqyN7m-21" value="" style="rounded=0;whiteSpace=wrap;html=1;" parent="1" vertex="1">
          <mxGeometry x="614.75" y="420" width="210" height="150" as="geometry" />
        </mxCell>
        <mxCell id="txdml7WTBSUscQEqyN7m-22" value="" style="rounded=0;whiteSpace=wrap;html=1;" parent="1" vertex="1">
          <mxGeometry x="629" y="430" width="190" height="35" as="geometry" />
        </mxCell>
        <mxCell id="txdml7WTBSUscQEqyN7m-23" value="" style="rounded=0;whiteSpace=wrap;html=1;" parent="1" vertex="1">
          <mxGeometry x="629" y="470" width="190" height="35" as="geometry" />
        </mxCell>
        <mxCell id="txdml7WTBSUscQEqyN7m-24" value="UL" style="text;html=1;align=center;verticalAlign=middle;whiteSpace=wrap;rounded=0;" parent="1" vertex="1">
          <mxGeometry x="827" y="455" width="60" height="30" as="geometry" />
        </mxCell>
        <mxCell id="txdml7WTBSUscQEqyN7m-25" value="LI" style="text;html=1;align=center;verticalAlign=middle;whiteSpace=wrap;rounded=0;" parent="1" vertex="1">
          <mxGeometry x="689" y="432.5" width="60" height="30" as="geometry" />
        </mxCell>
        <mxCell id="txdml7WTBSUscQEqyN7m-26" value="" style="rounded=0;whiteSpace=wrap;html=1;" parent="1" vertex="1">
          <mxGeometry x="629" y="530" width="190" height="35" as="geometry" />
        </mxCell>
        <mxCell id="txdml7WTBSUscQEqyN7m-28" style="edgeStyle=orthogonalEdgeStyle;rounded=0;orthogonalLoop=1;jettySize=auto;html=1;entryX=-0.017;entryY=0.552;entryDx=0;entryDy=0;entryPerimeter=0;" parent="1" source="txdml7WTBSUscQEqyN7m-11" target="txdml7WTBSUscQEqyN7m-18" edge="1">
          <mxGeometry relative="1" as="geometry" />
        </mxCell>
        <mxCell id="hkN_jeqbY-XOxdRC-jac-1" value="" style="rounded=1;whiteSpace=wrap;html=1;" parent="1" vertex="1">
          <mxGeometry x="804.75" y="5450" width="250" height="380" as="geometry" />
        </mxCell>
        <mxCell id="hkN_jeqbY-XOxdRC-jac-2" value="" style="rounded=1;whiteSpace=wrap;html=1;" parent="1" vertex="1">
          <mxGeometry x="1284.75" y="4600" width="190" height="190" as="geometry" />
        </mxCell>
        <mxCell id="hkN_jeqbY-XOxdRC-jac-3" value="" style="rounded=0;whiteSpace=wrap;html=1;fillColor=#FFCCCC;" parent="1" vertex="1">
          <mxGeometry x="634" y="4600" width="240" height="230" as="geometry" />
        </mxCell>
        <mxCell id="hkN_jeqbY-XOxdRC-jac-4" value="" style="rounded=0;whiteSpace=wrap;html=1;" parent="1" vertex="1">
          <mxGeometry x="432.5" y="640" width="320" height="440" as="geometry" />
        </mxCell>
        <mxCell id="hkN_jeqbY-XOxdRC-jac-5" value="" style="rounded=0;whiteSpace=wrap;html=1;" parent="1" vertex="1">
          <mxGeometry x="202.5" y="650" width="120" height="60" as="geometry" />
        </mxCell>
        <mxCell id="hkN_jeqbY-XOxdRC-jac-6" value="" style="rounded=0;whiteSpace=wrap;html=1;" parent="1" vertex="1">
          <mxGeometry x="872.5" y="630" width="120" height="50" as="geometry" />
        </mxCell>
        <mxCell id="hkN_jeqbY-XOxdRC-jac-7" value="" style="rounded=0;whiteSpace=wrap;html=1;" parent="1" vertex="1">
          <mxGeometry x="912.5" y="1100" width="100" height="60" as="geometry" />
        </mxCell>
        <mxCell id="hkN_jeqbY-XOxdRC-jac-8" value="" style="rounded=0;whiteSpace=wrap;html=1;" parent="1" vertex="1">
          <mxGeometry x="462.5" y="670" width="120" height="60" as="geometry" />
        </mxCell>
        <mxCell id="hkN_jeqbY-XOxdRC-jac-9" value="" style="rounded=0;whiteSpace=wrap;html=1;" parent="1" vertex="1">
          <mxGeometry x="592.5" y="750" width="120" height="60" as="geometry" />
        </mxCell>
        <mxCell id="hkN_jeqbY-XOxdRC-jac-10" value="" style="rounded=0;whiteSpace=wrap;html=1;" parent="1" vertex="1">
          <mxGeometry x="446.5" y="980" width="120" height="60" as="geometry" />
        </mxCell>
        <mxCell id="hkN_jeqbY-XOxdRC-jac-11" value="" style="rounded=0;whiteSpace=wrap;html=1;" parent="1" vertex="1">
          <mxGeometry x="622.5" y="870" width="120" height="60" as="geometry" />
        </mxCell>
        <mxCell id="hkN_jeqbY-XOxdRC-jac-12" value="Text" style="text;html=1;align=center;verticalAlign=middle;whiteSpace=wrap;rounded=0;" parent="1" vertex="1">
          <mxGeometry x="472.5" y="995" width="60" height="30" as="geometry" />
        </mxCell>
        <mxCell id="hkN_jeqbY-XOxdRC-jac-13" value="&lt;h1 style=&quot;margin-top: 0px;&quot;&gt;Heading&lt;/h1&gt;&lt;p&gt;Lorem ipsum dolor sit amet, consectetur adipisicing elit, sed do eiusmod tempor incididunt ut labore et dolore magna aliqua.&lt;/p&gt;" style="text;html=1;whiteSpace=wrap;overflow=hidden;rounded=0;" parent="1" vertex="1">
          <mxGeometry x="452.5" y="760" width="130" height="150" as="geometry" />
        </mxCell>
        <mxCell id="hkN_jeqbY-XOxdRC-jac-14" value="" style="shape=process;whiteSpace=wrap;html=1;backgroundOutline=1;" parent="1" vertex="1">
          <mxGeometry x="612.5" y="970" width="120" height="60" as="geometry" />
        </mxCell>
        <mxCell id="hkN_jeqbY-XOxdRC-jac-15" value="Text" style="text;html=1;align=center;verticalAlign=middle;whiteSpace=wrap;rounded=0;" parent="1" vertex="1">
          <mxGeometry x="642.5" y="985" width="60" height="30" as="geometry" />
        </mxCell>
        <mxCell id="hkN_jeqbY-XOxdRC-jac-16" value="Text" style="text;html=1;align=center;verticalAlign=middle;whiteSpace=wrap;rounded=0;" parent="1" vertex="1">
          <mxGeometry x="487.5" y="685" width="60" height="30" as="geometry" />
        </mxCell>
        <mxCell id="hkN_jeqbY-XOxdRC-jac-17" value="Text" style="text;html=1;align=center;verticalAlign=middle;whiteSpace=wrap;rounded=0;" parent="1" vertex="1">
          <mxGeometry x="622.5" y="765" width="60" height="30" as="geometry" />
        </mxCell>
        <mxCell id="hkN_jeqbY-XOxdRC-jac-18" value="" style="rounded=0;whiteSpace=wrap;html=1;" parent="1" vertex="1">
          <mxGeometry x="362.5" y="1130" width="460" height="580" as="geometry" />
        </mxCell>
        <mxCell id="hkN_jeqbY-XOxdRC-jac-19" value="el-2" style="rounded=0;whiteSpace=wrap;html=1;" parent="1" vertex="1">
          <mxGeometry x="522.5" y="1750" width="210" height="300" as="geometry" />
        </mxCell>
        <mxCell id="hkN_jeqbY-XOxdRC-jac-20" value="" style="endArrow=none;html=1;rounded=0;entryX=0.891;entryY=0.207;entryDx=0;entryDy=0;entryPerimeter=0;" parent="1" source="hkN_jeqbY-XOxdRC-jac-23" edge="1">
          <mxGeometry width="50" height="50" relative="1" as="geometry">
            <mxPoint x="196.57" y="1300" as="sourcePoint" />
            <mxPoint x="816.4300000000002" y="1310.06" as="targetPoint" />
          </mxGeometry>
        </mxCell>
        <mxCell id="hkN_jeqbY-XOxdRC-jac-21" value="" style="endArrow=none;html=1;rounded=0;exitX=0.152;exitY=0.672;exitDx=0;exitDy=0;exitPerimeter=0;" parent="1" edge="1">
          <mxGeometry width="50" height="50" relative="1" as="geometry">
            <mxPoint x="487.50000000000006" y="1589.76" as="sourcePoint" />
            <mxPoint x="497.5799999999999" y="1136" as="targetPoint" />
          </mxGeometry>
        </mxCell>
        <mxCell id="hkN_jeqbY-XOxdRC-jac-22" value="" style="endArrow=none;html=1;rounded=0;entryX=0.891;entryY=0.207;entryDx=0;entryDy=0;entryPerimeter=0;" parent="1" target="hkN_jeqbY-XOxdRC-jac-23" edge="1">
          <mxGeometry width="50" height="50" relative="1" as="geometry">
            <mxPoint x="196.57" y="1300" as="sourcePoint" />
            <mxPoint x="816.4300000000002" y="1310.06" as="targetPoint" />
          </mxGeometry>
        </mxCell>
        <mxCell id="hkN_jeqbY-XOxdRC-jac-23" value="el-1" style="rounded=0;whiteSpace=wrap;html=1;" parent="1" vertex="1">
          <mxGeometry x="427.5" y="1290" width="120" height="60" as="geometry" />
        </mxCell>
        <mxCell id="hkN_jeqbY-XOxdRC-jac-24" value="" style="rounded=0;whiteSpace=wrap;html=1;" parent="1" vertex="1">
          <mxGeometry x="402.5" y="2150" width="380" height="250" as="geometry" />
        </mxCell>
        <mxCell id="hkN_jeqbY-XOxdRC-jac-25" value="" style="rounded=0;whiteSpace=wrap;html=1;" parent="1" vertex="1">
          <mxGeometry x="792.5" y="2269" width="40" height="30" as="geometry" />
        </mxCell>
        <mxCell id="hkN_jeqbY-XOxdRC-jac-26" value="" style="rounded=0;whiteSpace=wrap;html=1;" parent="1" vertex="1">
          <mxGeometry x="332.5" y="2269" width="40" height="30" as="geometry" />
        </mxCell>
        <mxCell id="hkN_jeqbY-XOxdRC-jac-27" value="" style="rounded=0;whiteSpace=wrap;html=1;" parent="1" vertex="1">
          <mxGeometry x="802.5" y="2040" width="120" height="60" as="geometry" />
        </mxCell>
        <mxCell id="hkN_jeqbY-XOxdRC-jac-28" value="" style="rounded=0;whiteSpace=wrap;html=1;" parent="1" vertex="1">
          <mxGeometry x="442.5" y="2170" width="120" height="60" as="geometry" />
        </mxCell>
        <mxCell id="hkN_jeqbY-XOxdRC-jac-29" value="el-1" style="rounded=0;whiteSpace=wrap;html=1;" parent="1" vertex="1">
          <mxGeometry x="842.5" y="1710" width="120" height="60" as="geometry" />
        </mxCell>
        <mxCell id="hkN_jeqbY-XOxdRC-jac-30" value="" style="rounded=0;whiteSpace=wrap;html=1;" parent="1" vertex="1">
          <mxGeometry x="202.5" y="1770" width="250" height="220" as="geometry" />
        </mxCell>
        <mxCell id="hkN_jeqbY-XOxdRC-jac-31" value="" style="rounded=0;whiteSpace=wrap;html=1;" parent="1" vertex="1">
          <mxGeometry x="212.5" y="1920" width="230" height="60" as="geometry" />
        </mxCell>
        <mxCell id="hkN_jeqbY-XOxdRC-jac-32" value="" style="rounded=0;whiteSpace=wrap;html=1;" parent="1" vertex="1">
          <mxGeometry x="212.5" y="1840" width="230" height="70" as="geometry" />
        </mxCell>
        <mxCell id="hkN_jeqbY-XOxdRC-jac-33" value="" style="rounded=0;whiteSpace=wrap;html=1;" parent="1" vertex="1">
          <mxGeometry x="212.5" y="1990" width="230" height="60" as="geometry" />
        </mxCell>
        <mxCell id="hkN_jeqbY-XOxdRC-jac-34" style="edgeStyle=orthogonalEdgeStyle;rounded=0;orthogonalLoop=1;jettySize=auto;html=1;entryX=0;entryY=0.5;entryDx=0;entryDy=0;" parent="1" source="hkN_jeqbY-XOxdRC-jac-35" target="hkN_jeqbY-XOxdRC-jac-37" edge="1">
          <mxGeometry relative="1" as="geometry" />
        </mxCell>
        <mxCell id="hkN_jeqbY-XOxdRC-jac-35" value="Client Side" style="rounded=0;whiteSpace=wrap;html=1;" parent="1" vertex="1">
          <mxGeometry x="170" y="2680" width="142.5" height="90" as="geometry" />
        </mxCell>
        <mxCell id="hkN_jeqbY-XOxdRC-jac-36" style="edgeStyle=orthogonalEdgeStyle;rounded=0;orthogonalLoop=1;jettySize=auto;html=1;exitX=0.5;exitY=1;exitDx=0;exitDy=0;entryX=0.5;entryY=0;entryDx=0;entryDy=0;" parent="1" source="hkN_jeqbY-XOxdRC-jac-37" target="hkN_jeqbY-XOxdRC-jac-41" edge="1">
          <mxGeometry relative="1" as="geometry" />
        </mxCell>
        <mxCell id="hkN_jeqbY-XOxdRC-jac-37" value="DOM resource capture" style="rounded=1;whiteSpace=wrap;html=1;" parent="1" vertex="1">
          <mxGeometry x="462.5" y="2580" width="180" height="80" as="geometry" />
        </mxCell>
        <mxCell id="hkN_jeqbY-XOxdRC-jac-38" style="edgeStyle=orthogonalEdgeStyle;rounded=0;orthogonalLoop=1;jettySize=auto;html=1;exitX=1;exitY=0.5;exitDx=0;exitDy=0;entryX=0;entryY=0.5;entryDx=0;entryDy=0;" parent="1" source="hkN_jeqbY-XOxdRC-jac-39" target="hkN_jeqbY-XOxdRC-jac-42" edge="1">
          <mxGeometry relative="1" as="geometry" />
        </mxCell>
        <mxCell id="hkN_jeqbY-XOxdRC-jac-39" value="Resurrection" style="rounded=1;whiteSpace=wrap;html=1;" parent="1" vertex="1">
          <mxGeometry x="722.5" y="2730" width="160" height="90" as="geometry" />
        </mxCell>
        <mxCell id="hkN_jeqbY-XOxdRC-jac-40" style="edgeStyle=orthogonalEdgeStyle;rounded=0;orthogonalLoop=1;jettySize=auto;html=1;entryX=0;entryY=0.5;entryDx=0;entryDy=0;" parent="1" source="hkN_jeqbY-XOxdRC-jac-41" target="hkN_jeqbY-XOxdRC-jac-39" edge="1">
          <mxGeometry relative="1" as="geometry" />
        </mxCell>
        <mxCell id="hkN_jeqbY-XOxdRC-jac-41" value="AWS" style="shape=process;whiteSpace=wrap;html=1;backgroundOutline=1;" parent="1" vertex="1">
          <mxGeometry x="517.5" y="2790" width="70" height="98" as="geometry" />
        </mxCell>
        <mxCell id="hkN_jeqbY-XOxdRC-jac-42" value="Webpage Re-Creation (PERCY)" style="rounded=1;whiteSpace=wrap;html=1;" parent="1" vertex="1">
          <mxGeometry x="962.5" y="2640" width="160" height="80" as="geometry" />
        </mxCell>
        <mxCell id="hkN_jeqbY-XOxdRC-jac-43" value="" style="rounded=0;whiteSpace=wrap;html=1;" parent="1" vertex="1">
          <mxGeometry x="232.5" y="2980" width="160" height="490" as="geometry" />
        </mxCell>
        <mxCell id="hkN_jeqbY-XOxdRC-jac-44" value="" style="rounded=0;whiteSpace=wrap;html=1;" parent="1" vertex="1">
          <mxGeometry x="622.5" y="2980" width="180" height="60" as="geometry" />
        </mxCell>
        <mxCell id="hkN_jeqbY-XOxdRC-jac-45" value="" style="rounded=0;whiteSpace=wrap;html=1;" parent="1" vertex="1">
          <mxGeometry x="622.5" y="3070" width="180" height="60" as="geometry" />
        </mxCell>
        <mxCell id="hkN_jeqbY-XOxdRC-jac-46" value="" style="rounded=0;whiteSpace=wrap;html=1;" parent="1" vertex="1">
          <mxGeometry x="622.5" y="3160" width="180" height="60" as="geometry" />
        </mxCell>
        <mxCell id="hkN_jeqbY-XOxdRC-jac-47" value="" style="rounded=0;whiteSpace=wrap;html=1;" parent="1" vertex="1">
          <mxGeometry x="622.5" y="3408" width="180" height="62" as="geometry" />
        </mxCell>
        <mxCell id="hkN_jeqbY-XOxdRC-jac-48" value="[&lt;div&gt;{&lt;/div&gt;&lt;div&gt;url,&lt;/div&gt;&lt;div&gt;folderToSaveResult&lt;br&gt;&lt;div&gt;},&lt;/div&gt;&lt;div&gt;{&lt;/div&gt;&lt;div&gt;&lt;div&gt;{&lt;/div&gt;&lt;div&gt;url,&lt;/div&gt;&lt;div&gt;folderToSaveResult&lt;br&gt;&lt;div&gt;}&lt;/div&gt;&lt;/div&gt;&lt;/div&gt;&lt;div&gt;}.&lt;br&gt;{&lt;/div&gt;&lt;div&gt;}&lt;/div&gt;&lt;div&gt;]&lt;/div&gt;&lt;/div&gt;" style="rounded=0;whiteSpace=wrap;html=1;" parent="1" vertex="1">
          <mxGeometry x="922.5" y="3110" width="120" height="230" as="geometry" />
        </mxCell>
        <mxCell id="hkN_jeqbY-XOxdRC-jac-49" value="2 minutes" style="text;html=1;align=center;verticalAlign=middle;whiteSpace=wrap;rounded=0;" parent="1" vertex="1">
          <mxGeometry x="952.5" y="3050" width="60" height="30" as="geometry" />
        </mxCell>
        <mxCell id="hkN_jeqbY-XOxdRC-jac-50" value="" style="endArrow=classic;html=1;rounded=0;entryX=0;entryY=0.5;entryDx=0;entryDy=0;" parent="1" target="hkN_jeqbY-XOxdRC-jac-44" edge="1">
          <mxGeometry width="50" height="50" relative="1" as="geometry">
            <mxPoint x="522.5" y="3010" as="sourcePoint" />
            <mxPoint x="672.5" y="3230" as="targetPoint" />
          </mxGeometry>
        </mxCell>
        <mxCell id="hkN_jeqbY-XOxdRC-jac-51" value="" style="endArrow=classic;html=1;rounded=0;entryX=0;entryY=0.5;entryDx=0;entryDy=0;" parent="1" edge="1">
          <mxGeometry width="50" height="50" relative="1" as="geometry">
            <mxPoint x="522.5" y="3099.5" as="sourcePoint" />
            <mxPoint x="622.5" y="3099.5" as="targetPoint" />
          </mxGeometry>
        </mxCell>
        <mxCell id="hkN_jeqbY-XOxdRC-jac-52" value="" style="endArrow=classic;html=1;rounded=0;entryX=0;entryY=0.5;entryDx=0;entryDy=0;" parent="1" edge="1">
          <mxGeometry width="50" height="50" relative="1" as="geometry">
            <mxPoint x="522.5" y="3189.5" as="sourcePoint" />
            <mxPoint x="622.5" y="3189.5" as="targetPoint" />
          </mxGeometry>
        </mxCell>
        <mxCell id="hkN_jeqbY-XOxdRC-jac-53" value="" style="endArrow=classic;html=1;rounded=0;entryX=0;entryY=0.5;entryDx=0;entryDy=0;" parent="1" edge="1">
          <mxGeometry width="50" height="50" relative="1" as="geometry">
            <mxPoint x="522.5" y="3438.5" as="sourcePoint" />
            <mxPoint x="622.5" y="3438.5" as="targetPoint" />
          </mxGeometry>
        </mxCell>
        <mxCell id="hkN_jeqbY-XOxdRC-jac-54" value="" style="endArrow=none;html=1;rounded=0;" parent="1" edge="1">
          <mxGeometry width="50" height="50" relative="1" as="geometry">
            <mxPoint x="522.5" y="3440" as="sourcePoint" />
            <mxPoint x="522.5" y="3010" as="targetPoint" />
          </mxGeometry>
        </mxCell>
        <mxCell id="hkN_jeqbY-XOxdRC-jac-55" value="" style="endArrow=classic;html=1;rounded=0;exitX=1;exitY=0.5;exitDx=0;exitDy=0;" parent="1" source="hkN_jeqbY-XOxdRC-jac-43" edge="1">
          <mxGeometry width="50" height="50" relative="1" as="geometry">
            <mxPoint x="622.5" y="3280" as="sourcePoint" />
            <mxPoint x="522.5" y="3225" as="targetPoint" />
          </mxGeometry>
        </mxCell>
        <mxCell id="hkN_jeqbY-XOxdRC-jac-56" value="200 websites" style="text;html=1;align=center;verticalAlign=middle;whiteSpace=wrap;rounded=0;" parent="1" vertex="1">
          <mxGeometry x="272.5" y="3190" width="60" height="30" as="geometry" />
        </mxCell>
        <mxCell id="hkN_jeqbY-XOxdRC-jac-57" value="CONCURRENT_LIMIT websites" style="text;html=1;align=center;verticalAlign=middle;whiteSpace=wrap;rounded=0;" parent="1" vertex="1">
          <mxGeometry x="632.5" y="2995" width="160" height="30" as="geometry" />
        </mxCell>
        <mxCell id="hkN_jeqbY-XOxdRC-jac-58" value="" style="rounded=1;whiteSpace=wrap;html=1;" parent="1" vertex="1">
          <mxGeometry x="898" y="4120" width="224.5" height="220" as="geometry" />
        </mxCell>
        <mxCell id="hkN_jeqbY-XOxdRC-jac-59" value="" style="group" parent="1" vertex="1" connectable="0">
          <mxGeometry x="852.5" y="3780" width="300" height="240" as="geometry" />
        </mxCell>
        <mxCell id="hkN_jeqbY-XOxdRC-jac-60" value="" style="rounded=0;whiteSpace=wrap;html=1;" parent="hkN_jeqbY-XOxdRC-jac-59" vertex="1">
          <mxGeometry width="300" height="240" as="geometry" />
        </mxCell>
        <mxCell id="hkN_jeqbY-XOxdRC-jac-61" value="console window" style="rounded=0;whiteSpace=wrap;html=1;" parent="hkN_jeqbY-XOxdRC-jac-59" vertex="1">
          <mxGeometry y="50" width="300" height="190" as="geometry" />
        </mxCell>
        <mxCell id="hkN_jeqbY-XOxdRC-jac-62" value="" style="ellipse;whiteSpace=wrap;html=1;aspect=fixed;" parent="hkN_jeqbY-XOxdRC-jac-59" vertex="1">
          <mxGeometry x="10" y="11.707317073170731" width="17.5609756097561" height="17.5609756097561" as="geometry" />
        </mxCell>
        <mxCell id="hkN_jeqbY-XOxdRC-jac-63" value="" style="ellipse;whiteSpace=wrap;html=1;" parent="hkN_jeqbY-XOxdRC-jac-59" vertex="1">
          <mxGeometry x="240" y="11.707317073170731" width="60" height="17.5609756097561" as="geometry" />
        </mxCell>
        <mxCell id="hkN_jeqbY-XOxdRC-jac-64" value="" style="group" parent="1" vertex="1" connectable="0">
          <mxGeometry x="532.5" y="3780" width="300" height="240" as="geometry" />
        </mxCell>
        <mxCell id="hkN_jeqbY-XOxdRC-jac-65" value="" style="rounded=0;whiteSpace=wrap;html=1;" parent="hkN_jeqbY-XOxdRC-jac-64" vertex="1">
          <mxGeometry width="300" height="240" as="geometry" />
        </mxCell>
        <mxCell id="hkN_jeqbY-XOxdRC-jac-66" value="console window" style="rounded=0;whiteSpace=wrap;html=1;" parent="hkN_jeqbY-XOxdRC-jac-64" vertex="1">
          <mxGeometry y="150" width="300" height="90" as="geometry" />
        </mxCell>
        <mxCell id="hkN_jeqbY-XOxdRC-jac-67" value="" style="ellipse;whiteSpace=wrap;html=1;aspect=fixed;" parent="hkN_jeqbY-XOxdRC-jac-64" vertex="1">
          <mxGeometry x="10" y="120" width="18" height="18" as="geometry" />
        </mxCell>
        <mxCell id="hkN_jeqbY-XOxdRC-jac-68" value="" style="ellipse;whiteSpace=wrap;html=1;" parent="hkN_jeqbY-XOxdRC-jac-64" vertex="1">
          <mxGeometry x="230" y="6" width="60" height="18" as="geometry" />
        </mxCell>
        <mxCell id="hkN_jeqbY-XOxdRC-jac-69" value="" style="group" parent="1" vertex="1" connectable="0">
          <mxGeometry x="1182.5" y="3780" width="300" height="240" as="geometry" />
        </mxCell>
        <mxCell id="hkN_jeqbY-XOxdRC-jac-70" value="" style="rounded=0;whiteSpace=wrap;html=1;" parent="hkN_jeqbY-XOxdRC-jac-69" vertex="1">
          <mxGeometry width="300" height="240" as="geometry" />
        </mxCell>
        <mxCell id="hkN_jeqbY-XOxdRC-jac-71" value="" style="rounded=0;whiteSpace=wrap;html=1;" parent="hkN_jeqbY-XOxdRC-jac-69" vertex="1">
          <mxGeometry y="240" width="300" as="geometry" />
        </mxCell>
        <mxCell id="hkN_jeqbY-XOxdRC-jac-72" value="" style="ellipse;whiteSpace=wrap;html=1;aspect=fixed;" parent="hkN_jeqbY-XOxdRC-jac-69" vertex="1">
          <mxGeometry x="10" y="189.99731707317073" width="17.5609756097561" height="17.5609756097561" as="geometry" />
        </mxCell>
        <mxCell id="hkN_jeqbY-XOxdRC-jac-73" value="" style="ellipse;whiteSpace=wrap;html=1;" parent="hkN_jeqbY-XOxdRC-jac-69" vertex="1">
          <mxGeometry x="230" y="189.99731707317073" width="60" height="17.5609756097561" as="geometry" />
        </mxCell>
        <mxCell id="hkN_jeqbY-XOxdRC-jac-74" value="Automate / Website Scanner" style="text;html=1;align=center;verticalAlign=middle;whiteSpace=wrap;rounded=0;" parent="1" vertex="1">
          <mxGeometry x="1271" y="4030" width="123" height="30" as="geometry" />
        </mxCell>
        <mxCell id="hkN_jeqbY-XOxdRC-jac-75" value="Workflow Analyser" style="text;html=1;align=center;verticalAlign=middle;whiteSpace=wrap;rounded=0;" parent="1" vertex="1">
          <mxGeometry x="962.5" y="4030" width="60" height="30" as="geometry" />
        </mxCell>
        <mxCell id="hkN_jeqbY-XOxdRC-jac-76" value="Workflow Analyser" style="text;html=1;align=center;verticalAlign=middle;whiteSpace=wrap;rounded=0;" parent="1" vertex="1">
          <mxGeometry x="642.5" y="4030" width="60" height="30" as="geometry" />
        </mxCell>
        <mxCell id="hkN_jeqbY-XOxdRC-jac-77" value="" style="rounded=1;whiteSpace=wrap;html=1;" parent="1" vertex="1">
          <mxGeometry x="632.5" y="4600" width="180" height="170" as="geometry" />
        </mxCell>
        <mxCell id="hkN_jeqbY-XOxdRC-jac-78" value="1440" style="text;html=1;align=center;verticalAlign=middle;whiteSpace=wrap;rounded=0;" parent="1" vertex="1">
          <mxGeometry x="724" y="4830" width="60" height="30" as="geometry" />
        </mxCell>
        <mxCell id="hkN_jeqbY-XOxdRC-jac-79" value="800" style="text;html=1;align=center;verticalAlign=middle;whiteSpace=wrap;rounded=0;" parent="1" vertex="1">
          <mxGeometry x="872.5" y="4730" width="60" height="30" as="geometry" />
        </mxCell>
        <mxCell id="hkN_jeqbY-XOxdRC-jac-80" value="" style="rounded=0;whiteSpace=wrap;html=1;fillColor=#FFCCCC;" parent="1" vertex="1">
          <mxGeometry x="960.25" y="4600" width="234.5" height="290" as="geometry" />
        </mxCell>
        <mxCell id="hkN_jeqbY-XOxdRC-jac-81" value="" style="rounded=1;whiteSpace=wrap;html=1;" parent="1" vertex="1">
          <mxGeometry x="960.25" y="4600" width="210" height="190" as="geometry" />
        </mxCell>
        <mxCell id="hkN_jeqbY-XOxdRC-jac-82" value="1280" style="text;html=1;align=center;verticalAlign=middle;whiteSpace=wrap;rounded=0;" parent="1" vertex="1">
          <mxGeometry x="1050.5" y="4890" width="60" height="30" as="geometry" />
        </mxCell>
        <mxCell id="hkN_jeqbY-XOxdRC-jac-83" value="1024" style="text;html=1;align=center;verticalAlign=middle;whiteSpace=wrap;rounded=0;" parent="1" vertex="1">
          <mxGeometry x="1194.75" y="4730" width="60" height="30" as="geometry" />
        </mxCell>
        <mxCell id="hkN_jeqbY-XOxdRC-jac-84" value="" style="rounded=0;whiteSpace=wrap;html=1;fillColor=#FFCCCC;" parent="1" vertex="1">
          <mxGeometry x="1284.75" y="4600" width="90" height="80" as="geometry" />
        </mxCell>
        <mxCell id="hkN_jeqbY-XOxdRC-jac-85" value="320" style="text;html=1;align=center;verticalAlign=middle;whiteSpace=wrap;rounded=0;" parent="1" vertex="1">
          <mxGeometry x="1304.75" y="4680" width="60" height="30" as="geometry" />
        </mxCell>
        <mxCell id="hkN_jeqbY-XOxdRC-jac-86" value="256" style="text;html=1;align=center;verticalAlign=middle;whiteSpace=wrap;rounded=0;" parent="1" vertex="1">
          <mxGeometry x="1374.75" y="4625" width="60" height="30" as="geometry" />
        </mxCell>
        <mxCell id="hkN_jeqbY-XOxdRC-jac-87" value="user-1&lt;span style=&quot;color: rgba(0, 0, 0, 0); font-family: monospace; font-size: 0px; text-align: start; text-wrap-mode: nowrap;&quot;&gt;%3CmxGraphModel%3E%3Croot%3E%3CmxCell%20id%3D%220%22%2F%3E%3CmxCell%20id%3D%221%22%20parent%3D%220%22%2F%3E%3CmxCell%20id%3D%222%22%20value%3D%22%22%20style%3D%22rounded%3D0%3BwhiteSpace%3Dwrap%3Bhtml%3D1%3B%22%20vertex%3D%221%22%20parent%3D%221%22%3E%3CmxGeometry%20x%3D%2260%22%20y%3D%223970%22%20width%3D%22240%22%20height%3D%22270%22%20as%3D%22geometry%22%2F%3E%3C%2FmxCell%3E%3CmxCell%20id%3D%223%22%20value%3D%22%22%20style%3D%22rounded%3D1%3BwhiteSpace%3Dwrap%3Bhtml%3D1%3B%22%20vertex%3D%221%22%20parent%3D%221%22%3E%3CmxGeometry%20x%3D%2260%22%20y%3D%223970%22%20width%3D%22210%22%20height%3D%22190%22%20as%3D%22geometry%22%2F%3E%3C%2FmxCell%3E%3CmxCell%20id%3D%224%22%20value%3D%221440%22%20style%3D%22text%3Bhtml%3D1%3Balign%3Dcenter%3BverticalAlign%3Dmiddle%3BwhiteSpace%3Dwrap%3Brounded%3D0%3B%22%20vertex%3D%221%22%20parent%3D%221%22%3E%3CmxGeometry%20x%3D%22145%22%20y%3D%224260%22%20width%3D%2260%22%20height%3D%2230%22%20as%3D%22geometry%22%2F%3E%3C%2FmxCell%3E%3CmxCell%20id%3D%225%22%20value%3D%22800%22%20style%3D%22text%3Bhtml%3D1%3Balign%3Dcenter%3BverticalAlign%3Dmiddle%3BwhiteSpace%3Dwrap%3Brounded%3D0%3B%22%20vertex%3D%221%22%20parent%3D%221%22%3E%3CmxGeometry%20x%3D%22320%22%20y%3D%224100%22%20width%3D%2260%22%20height%3D%2230%22%20as%3D%22geometry%22%2F%3E%3C%2FmxCell%3E%3C%2Froot%3E%3C%2FmxGraphModel%3E&lt;/span&gt;" style="text;html=1;align=center;verticalAlign=middle;whiteSpace=wrap;rounded=0;" parent="1" vertex="1">
          <mxGeometry x="642.5" y="3740" width="60" height="30" as="geometry" />
        </mxCell>
        <mxCell id="hkN_jeqbY-XOxdRC-jac-88" value="user-2&lt;span style=&quot;color: rgba(0, 0, 0, 0); font-family: monospace; font-size: 0px; text-align: start; text-wrap-mode: nowrap;&quot;&gt;%3CmxGraphModel%3E%3Croot%3E%3CmxCell%20id%3D%220%22%2F%3E%3CmxCell%20id%3D%221%22%20parent%3D%220%22%2F%3E%3CmxCell%20id%3D%222%22%20value%3D%22%22%20style%3D%22rounded%3D0%3BwhiteSpace%3Dwrap%3Bhtml%3D1%3B%22%20vertex%3D%221%22%20parent%3D%221%22%3E%3CmxGeometry%20x%3D%2260%22%20y%3D%223970%22%20width%3D%22240%22%20height%3D%22270%22%20as%3D%22geometry%22%2F%3E%3C%2FmxCell%3E%3CmxCell%20id%3D%223%22%20value%3D%22%22%20style%3D%22rounded%3D1%3BwhiteSpace%3Dwrap%3Bhtml%3D1%3B%22%20vertex%3D%221%22%20parent%3D%221%22%3E%3CmxGeometry%20x%3D%2260%22%20y%3D%223970%22%20width%3D%22210%22%20height%3D%22190%22%20as%3D%22geometry%22%2F%3E%3C%2FmxCell%3E%3CmxCell%20id%3D%224%22%20value%3D%221440%22%20style%3D%22text%3Bhtml%3D1%3Balign%3Dcenter%3BverticalAlign%3Dmiddle%3BwhiteSpace%3Dwrap%3Brounded%3D0%3B%22%20vertex%3D%221%22%20parent%3D%221%22%3E%3CmxGeometry%20x%3D%22145%22%20y%3D%224260%22%20width%3D%2260%22%20height%3D%2230%22%20as%3D%22geometry%22%2F%3E%3C%2FmxCell%3E%3CmxCell%20id%3D%225%22%20value%3D%22800%22%20style%3D%22text%3Bhtml%3D1%3Balign%3Dcenter%3BverticalAlign%3Dmiddle%3BwhiteSpace%3Dwrap%3Brounded%3D0%3B%22%20vertex%3D%221%22%20parent%3D%221%22%3E%3CmxGeometry%20x%3D%22320%22%20y%3D%224100%22%20width%3D%2260%22%20height%3D%2230%22%20as%3D%22geometry%22%2F%3E%3C%2FmxCell%3E%3C%2Froot%3E%3C%2FmxGraphModel%32&lt;/span&gt;" style="text;html=1;align=center;verticalAlign=middle;whiteSpace=wrap;rounded=0;" parent="1" vertex="1">
          <mxGeometry x="962.5" y="3740" width="60" height="30" as="geometry" />
        </mxCell>
        <mxCell id="hkN_jeqbY-XOxdRC-jac-89" value="" style="rounded=1;whiteSpace=wrap;html=1;" parent="1" vertex="1">
          <mxGeometry x="1250.25" y="4120" width="224.5" height="220" as="geometry" />
        </mxCell>
        <mxCell id="hkN_jeqbY-XOxdRC-jac-90" value="" style="rounded=1;whiteSpace=wrap;html=1;" parent="1" vertex="1">
          <mxGeometry x="560.25" y="4120" width="224.5" height="220" as="geometry" />
        </mxCell>
        <mxCell id="hkN_jeqbY-XOxdRC-jac-91" value="" style="ellipse;whiteSpace=wrap;html=1;aspect=fixed;" parent="1" vertex="1">
          <mxGeometry x="574.5" y="4260" width="18" height="18" as="geometry" />
        </mxCell>
        <mxCell id="hkN_jeqbY-XOxdRC-jac-92" value="" style="ellipse;whiteSpace=wrap;html=1;" parent="1" vertex="1">
          <mxGeometry x="722.5" y="4160" width="60" height="18" as="geometry" />
        </mxCell>
        <mxCell id="hkN_jeqbY-XOxdRC-jac-93" value="" style="ellipse;whiteSpace=wrap;html=1;aspect=fixed;" parent="1" vertex="1">
          <mxGeometry x="907.5" y="4221.21731707317" width="17.5609756097561" height="17.5609756097561" as="geometry" />
        </mxCell>
        <mxCell id="hkN_jeqbY-XOxdRC-jac-94" value="" style="ellipse;whiteSpace=wrap;html=1;" parent="1" vertex="1">
          <mxGeometry x="1057.5" y="4221.21731707317" width="60" height="17.5609756097561" as="geometry" />
        </mxCell>
        <mxCell id="hkN_jeqbY-XOxdRC-jac-95" value="" style="ellipse;whiteSpace=wrap;html=1;aspect=fixed;" parent="1" vertex="1">
          <mxGeometry x="1262.5" y="4277.997317073171" width="17.5609756097561" height="17.5609756097561" as="geometry" />
        </mxCell>
        <mxCell id="hkN_jeqbY-XOxdRC-jac-96" value="" style="ellipse;whiteSpace=wrap;html=1;" parent="1" vertex="1">
          <mxGeometry x="1412.5" y="4277.997317073171" width="60" height="17.5609756097561" as="geometry" />
        </mxCell>
        <mxCell id="hkN_jeqbY-XOxdRC-jac-97" value="DOMForge" style="text;html=1;align=center;verticalAlign=middle;whiteSpace=wrap;rounded=0;" parent="1" vertex="1">
          <mxGeometry x="622.5" y="4350" width="60" height="30" as="geometry" />
        </mxCell>
        <mxCell id="hkN_jeqbY-XOxdRC-jac-98" value="DOMForge" style="text;html=1;align=center;verticalAlign=middle;whiteSpace=wrap;rounded=0;" parent="1" vertex="1">
          <mxGeometry x="1332.5" y="4350" width="60" height="30" as="geometry" />
        </mxCell>
        <mxCell id="hkN_jeqbY-XOxdRC-jac-99" value="DOMForge" style="text;html=1;align=center;verticalAlign=middle;whiteSpace=wrap;rounded=0;" parent="1" vertex="1">
          <mxGeometry x="962.5" y="4350" width="60" height="30" as="geometry" />
        </mxCell>
        <mxCell id="hkN_jeqbY-XOxdRC-jac-100" value="user-1 / user-2&lt;span style=&quot;color: rgba(0, 0, 0, 0); font-family: monospace; font-size: 0px; text-align: start; text-wrap-mode: nowrap;&quot;&gt;%3 CmxGraphModel%3E%3Croot%3E%3CmxCell%20id%3D%220%22%2F%3E%3CmxCell%20id%3D%221%22%20parent%3D%220%22%2F%3E%3CmxCell%20id%3D%222%22%20value%3D%22%22%20style%3D%22rounded%3D0%3BwhiteSpace%3Dwrap%3Bhtml%3D1%3B%22%20vertex%3D%221%22%20parent%3D%221%22%3E%3CmxGeometry%20x%3D%2260%22%20y%3D%223970%22%20width%3D%22240%22%20height%3D%22270%22%20as%3D%22geometry%22%2F%3E%3C%2FmxCell%3E%3CmxCell%20id%3D%223%22%20value%3D%22%22%20style%3D%22rounded%3D1%3BwhiteSpace%3Dwrap%3Bhtml%3D1%3B%22%20vertex%3D%221%22%20parent%3D%221%22%3E%3CmxGeometry%20x%3D%2260%22%20y%3D%223970%22%20width%3D%22210%22%20height%3D%22190%22%20as%3D%22geometry%22%2F%3E%3C%2FmxCell%3E%3CmxCell%20id%3D%224%22%20value%3D%221440%22%20style%3D%22text%3Bhtml%3D1%3Balign%3Dcenter%3BverticalAlign%3Dmiddle%3BwhiteSpace%3Dwrap%3Brounded%3D0%3B%22%20vertex%3D%221%22%20parent%3D%221%22%3E%3CmxGeometry%20x%3D%22145%22%20y%3D%224260%22%20width%3D%2260%22%20height%3D%2230%22%20as%3D%22geometry%22%2F%3E%3C%2FmxCell%3E%3CmxCell%20id%3D%225%22%20value%3D%22800%22%20style%3D%22text%3Bhtml%3D1%3Balign%3Dcenter%3BverticalAlign%3Dmiddle%3BwhiteSpace%3Dwrap%3Brounded%3D0%3B%22%20vertex%3D%221%22%20parent%3D%221%22%3E%3CmxGeometry%20x%3D%22320%22%20y%3D%224100%22%20width%3D%2260%22%20height%3D%2230%22%20as%3D%22geometry%22%2F%3E%3C%2FmxCell%3E%3C%2Froot%3E%3C%2FmxGraphModel%3E /&lt;/span&gt;" style="text;html=1;align=center;verticalAlign=middle;whiteSpace=wrap;rounded=0;" parent="1" vertex="1">
          <mxGeometry x="1302.5" y="3740" width="100" height="30" as="geometry" />
        </mxCell>
        <mxCell id="hkN_jeqbY-XOxdRC-jac-101" value="" style="rounded=0;whiteSpace=wrap;html=1;" parent="1" vertex="1">
          <mxGeometry x="824.75" y="5580" width="215" height="80" as="geometry" />
        </mxCell>
        <mxCell id="hkN_jeqbY-XOxdRC-jac-102" value="I have text in me which is outside of viewport" style="text;html=1;align=center;verticalAlign=middle;whiteSpace=wrap;rounded=0;" parent="1" vertex="1">
          <mxGeometry x="950.25" y="5605" width="174.5" height="30" as="geometry" />
        </mxCell>
        <mxCell id="hkN_jeqbY-XOxdRC-jac-103" value="" style="rounded=1;whiteSpace=wrap;html=1;" parent="1" vertex="1">
          <mxGeometry x="1154.75" y="5450" width="250" height="380" as="geometry" />
        </mxCell>
        <mxCell id="hkN_jeqbY-XOxdRC-jac-104" value="" style="rounded=0;whiteSpace=wrap;html=1;" parent="1" vertex="1">
          <mxGeometry x="1174.75" y="5580" width="215" height="80" as="geometry" />
        </mxCell>
        <mxCell id="hkN_jeqbY-XOxdRC-jac-105" value="I have text ............" style="text;html=1;align=center;verticalAlign=middle;whiteSpace=wrap;rounded=0;" parent="1" vertex="1">
          <mxGeometry x="1300.25" y="5605" width="174.5" height="30" as="geometry" />
        </mxCell>
        <mxCell id="hkN_jeqbY-XOxdRC-jac-106" value="Zomato false positive&lt;br&gt;CASE-2" style="text;html=1;align=center;verticalAlign=middle;whiteSpace=wrap;rounded=0;" parent="1" vertex="1">
          <mxGeometry x="1219.75" y="5400" width="135" height="30" as="geometry" />
        </mxCell>
        <mxCell id="hkN_jeqbY-XOxdRC-jac-107" value="Correct Violation&lt;br&gt;CASE-1" style="text;html=1;align=center;verticalAlign=middle;whiteSpace=wrap;rounded=0;" parent="1" vertex="1">
          <mxGeometry x="894.75" y="5400" width="92.5" height="30" as="geometry" />
        </mxCell>
        <mxCell id="bnB7vH-MitKgwDP6hWTF-1" value="Div" style="text;html=1;align=center;verticalAlign=middle;whiteSpace=wrap;rounded=0;" vertex="1" parent="1">
          <mxGeometry x="742.5" y="330" width="60" height="30" as="geometry" />
        </mxCell>
        <mxCell id="bnB7vH-MitKgwDP6hWTF-2" value="Searching:&lt;br&gt;finding sub-menu pattern&lt;div&gt;|&lt;/div&gt;&lt;div&gt;|&lt;/div&gt;&lt;div&gt;V&lt;/div&gt;&lt;div&gt;finding menu element&lt;/div&gt;&lt;div&gt;Bottom to Top&lt;/div&gt;&lt;div&gt;Sub-Menu to Menu&lt;/div&gt;" style="text;html=1;align=center;verticalAlign=middle;whiteSpace=wrap;rounded=0;" vertex="1" parent="1">
          <mxGeometry x="1025" y="390" width="127.5" height="140" as="geometry" />
        </mxCell>
        <mxCell id="bnB7vH-MitKgwDP6hWTF-4" value="Searching:&lt;br&gt;finding menu&lt;div&gt;|&lt;/div&gt;&lt;div&gt;|&lt;/div&gt;&lt;div&gt;V&lt;/div&gt;&lt;div&gt;finding sub-menu pattern&lt;/div&gt;&lt;div&gt;Top to Bottom&lt;/div&gt;&lt;div&gt;Menu to Sub-Menu&lt;/div&gt;" style="text;html=1;align=center;verticalAlign=middle;whiteSpace=wrap;rounded=0;" vertex="1" parent="1">
          <mxGeometry x="1027.25" y="50" width="127.5" height="140" as="geometry" />
        </mxCell>
      </root>
    </mxGraphModel>
  </diagram>
</mxfile>
